<svg xmlns="http://www.w3.org/2000/svg" version="1.1" viewBox="-5.0 -10.0 110.0 135.0">
 <path d="m56.074 43.047-6.4258-7.8516-13.477 0.003907 6.375 7.8516zm17.773 0-6.5742-7.8516-11.152 0.003907 6.4258 7.8516zm-0.050781-7.8477 6.5742 7.8516h6.2734v-7.8516zm6.4023-24.125-6.0742 9.0508 10.977-1.9766-1.3984-7.75zm-20.852 3.7227-6.0742 9.1484 13.977-2.5742 6.1016-9.0742zm-12.875 10.375 6.0742-9.1484-11.25 2.0234-6.0508 9.125zm38.773-20.125c0.67969-0.125 1.3047 0.007813 1.875 0.39844 0.5625 0.39063 0.90625 0.92188 1.0234 1.6016l2.3008 12.648c0.125 0.67969-0.007812 1.3047-0.39844 1.875-0.39062 0.5625-0.92578 0.90625-1.6016 1.0234l-19.176 3.5h-0.074219l-0.074218 0.023438-20.523 3.75h-0.023437c-0.042969 0.007812-0.085938 0.015624-0.125 0.023437-0.097657 0.019531-0.1875 0.035156-0.27344 0.050781l-1.3984 0.25h42.375c0.69141-0.003906 1.2852 0.23828 1.7734 0.72656 0.48438 0.49219 0.72656 1.082 0.72656 1.7734v59.801c0.003906 0.69141-0.23828 1.2852-0.72656 1.7734-0.49219 0.49219-1.0859 0.73438-1.7773 0.73438h-76.051c-0.69141 0-1.2852-0.24219-1.7734-0.72656-0.48438-0.49219-0.72656-1.082-0.72656-1.7734v-58.902l-2.1992-12.125c-0.125-0.67188 0.007812-1.2891 0.39844-1.8516 0.39453-0.5625 0.92578-0.90625 1.6016-1.0234l28.898-5.25h0.074219l17.773-3.1992c0.066407-0.019532 0.13281-0.035157 0.19922-0.050782 0.10938-0.023437 0.21875-0.039062 0.32422-0.050781l20.523-3.6992h0.023438c0.042968-0.007812 0.085937-0.015625 0.125-0.023437zm-23.848 61.102-18.199-10.602c-0.52344-0.3125-1.082-0.42188-1.6758-0.32422-0.59375 0.10938-1.0859 0.40234-1.4766 0.875-0.39453 0.46094-0.59375 0.99609-0.60156 1.6016v21.102c-0.003906 0.60156 0.1875 1.1328 0.57422 1.6016 0.39062 0.46094 0.88281 0.74609 1.4766 0.85156 0.59766 0.11328 1.1641 0.023438 1.6992-0.27344l18.199-10.5c0.52344-0.30859 0.89062-0.75 1.1016-1.3242 0.20703-0.57031 0.20703-1.1328 0-1.6992-0.20703-0.57422-0.57422-1.0078-1.0977-1.3086zm-25.301-23.102-6.3516-7.8516-10.848 0.003907-3.3008 0.60156v7.25zm-22.352-20 1.3984 7.75 2.8516-0.5c0.10547-0.035156 0.21484-0.058594 0.32422-0.074219l10.125-1.8242 6.0234-9.1016z" fill-rule="evenodd"/>
</svg>